<svg width="74.06" height="122.88" xmlns="http://www.w3.org/2000/svg" data-name="Layer 1">

 <title>glass</title>
 <g>
  <title>Layer 1</title>
  <path id="svg_1" d="m4.71,43.34c10.83,9.12 23.13,6.11 35.71,3c9.26,-2.26 18.66,-4.56 27.84,-2.19l0.39,0.1l-5.09,65.47a11.18,11.18 0 0 1 -3.16,7.06a9.46,9.46 0 0 1 -6.74,2.81l-32.58,0a9.25,9.25 0 0 1 -6.64,-2.77a11.93,11.93 0 0 1 -3.27,-7.09l-7.39,-67.17l0.93,0.78z"/>
  <path id="svg_2" fill-rule="evenodd" fill="#428cff" d="m4.4,45.8c19,16 42.17,-4.62 63.74,1l-5.06,65.06c-0.4,5.17 -4.24,9.43 -9.42,9.43l-32.58,0c-5.18,0 -8.86,-4.28 -9.42,-9.43l-7.26,-66.06z" class="cls-1"/>
  <path id="svg_3" d="m0,14.11a1.47,1.47 0 0 1 0,-0.47a4.63,4.63 0 0 1 0,-0.64c0,-3.93 4.4,-7.3 11.51,-9.58c6.56,-2.12 15.59,-3.42 25.49,-3.42s19,1.3 25.56,3.41c7.11,2.28 11.5,5.65 11.5,9.58a5.52,5.52 0 0 1 -0.32,1.84l-9,97.13a12.65,12.65 0 0 1 -3.54,7.79l0,0a10.48,10.48 0 0 1 -7.5,3.13l-32.62,0a10.39,10.39 0 0 1 -7.48,-3.12a12.79,12.79 0 0 1 -3.6,-7.76l-10,-97.89zm3.81,4.89l9.48,92.69a9.53,9.53 0 0 0 2.63,5.79a7.2,7.2 0 0 0 5.16,2.15l32.58,0a7.28,7.28 0 0 0 5.19,-2.16a9.42,9.42 0 0 0 2.6,-5.76l8.6,-92.57a28.61,28.61 0 0 1 -7.49,3.48c-6.56,2.07 -15.56,3.38 -25.56,3.38s-19,-1.3 -25.52,-3.41a28.08,28.08 0 0 1 -7.67,-3.59zm66.7,-4.86l0.07,-0.65a1.54,1.54 0 0 1 0.19,-0.64c-0.18,-2.27 -3.67,-4.5 -9.22,-6.28c-6.24,-2.04 -14.91,-3.28 -24.55,-3.28s-18.25,1.24 -24.49,3.24c-5.7,1.83 -9.22,4.13 -9.22,6.47s3.52,4.64 9.22,6.47c6.24,2 14.91,3.24 24.52,3.24s18.28,-1.24 24.52,-3.24c4.8,-1.54 8,-3.41 9,-5.36l-0.04,0.03z"/>
  <path id="svg_4" fill="#fff" d="m14.46,62.79a1.64,1.64 0 1 1 3.27,-0.33l1.27,12.4a1.64,1.64 0 1 1 -3.26,0.33l-1.27,-12.4l-0.01,0zm2.17,21.21a1.64,1.64 0 0 1 3.27,-0.34l2.27,22.22a1.65,1.65 0 0 1 -1.47,1.8a1.63,1.63 0 0 1 -1.79,-1.46l-2.28,-22.22z" class="cls-2"/>
 </g>
</svg>